<?xml version="1.0" encoding="UTF-8"?>
<svg width="35px" height="40px" fill="none" viewBox="0 0 35 40" version="1.1" xmlns="http://www.w3.org/2000/svg">
    <g id="Page-1" stroke="none" stroke-width="1" fill-rule="evenodd">
        <g id="forward" fill="currentColor" fill-rule="nonzero">
            <path d="M0.025,22.657 C0.025,21.794 0.725,21.094 1.588,21.094 C2.451,21.094 3.15,21.794 3.15,22.657 C3.15,30.422 9.447,36.719 17.213,36.719 C24.978,36.719 31.275,30.422 31.275,22.657 C31.275,14.891 24.978,8.594 17.212,8.594 L13.306,8.594 C12.443,8.594 11.744,7.895 11.744,7.032 C11.744,6.169 12.443,5.469 13.306,5.469 L17.212,5.469 C26.704,5.469 34.4,13.165 34.4,22.657 C34.4,32.149 26.705,39.844 17.212,39.844 C7.72,39.844 0.025,32.15 0.025,22.657 Z" id="Path" transform="translate(17.212500, 22.656500) scale(-1, 1) translate(-17.212500, -22.656500) "></path>
            <path d="M25.4289175,11.483 C25.9909175,12.139 25.9149175,13.125 25.2609175,13.686 C24.6039175,14.248 23.6179175,14.172 23.0569175,13.518 L18.3699175,8.049 C17.8679175,7.463 17.8679175,6.599 18.3699175,6.014 L23.0569175,0.544 C23.6179175,-0.109 24.6039175,-0.186 25.2609175,0.377 C25.9149175,0.937 25.9909175,1.924 25.4279175,2.58 L21.6139175,7.031 L25.4279175,11.483 L25.4289175,11.483 Z" id="Path" transform="translate(21.899459, 7.031250) scale(-1, 1) translate(-21.899459, -7.031250) "></path>
            <path d="M33.2415091,11.483 C33.8045091,12.139 33.7275091,13.125 33.0735091,13.686 C32.4175091,14.248 31.4305091,14.172 30.8705091,13.518 L26.1825091,8.049 C25.6805091,7.463 25.6805091,6.599 26.1825091,6.014 L30.8705091,0.544 C31.4305091,-0.109 32.4175091,-0.186 33.0735091,0.377 C33.7275091,0.937 33.8035091,1.924 33.2415091,2.58 L29.4275091,7.031 L33.2415091,11.483 L33.2415091,11.483 Z" id="Path" transform="translate(29.712255, 7.031250) scale(-1, 1) translate(-29.712255, -7.031250) "></path>
        </g>
    </g>
</svg>
