<?xml version="1.0" encoding="UTF-8"?>
<svg width="40px" height="40px" viewBox="0 0 40 40" version="1.1"
     xmlns="http://www.w3.org/2000/svg">
    <g id="Page-1" stroke="none" stroke-width="1" fill-rule="evenodd">
        <g id="play" fill="currentColor" fill-rule="nonzero">
            <path d="M19.94,39.533 C11.98,39.533 4.806,34.758 1.761,27.434 C-1.285,20.112 0.4,11.684 6.027,6.079 C11.654,0.474 20.117,-1.204 27.467,1.831 C34.821,4.863 39.615,12.008 39.615,19.935 C39.603,30.755 30.802,39.521 19.939,39.533 L19.94,39.533 Z M19.94,2.08 C12.688,2.08 6.153,6.43 3.376,13.103 C0.602,19.775 2.136,27.454 7.264,32.56 C12.39,37.668 20.101,39.195 26.798,36.432 C33.498,33.667 37.866,27.158 37.866,19.935 C37.866,10.074 29.841,2.08 19.939,2.08 L19.94,2.08 Z"
                  id="Shape"/>
            <path d="M15.703,27.386 C15.22,27.386 14.829,26.996 14.829,26.516 L14.829,13.356 C14.829,12.686 15.557,12.266 16.14,12.602 L27.586,19.182 C28.166,19.518 28.166,20.352 27.586,20.689 L16.14,27.273 C16.006,27.348 15.856,27.389 15.703,27.386 Z M16.578,14.862 L16.578,25.009 L25.4,19.935 L16.578,14.862 Z"
                  id="Shape"/>
        </g>
    </g>
</svg>
